# File created by Blade
# Date/Time:  Wed Jan 21 19:03:17 2015
#---------------------------------------------------------
:version 1.10
:name HOM
:units
  mass 1.0
  length 1.000000
  angle deg
:documentation
     Acclaim Skeleton File
:root
   axis xyz
   order TX TY TZ RX RY RZ
   position 0.000000 0.000000 0.000000
   orientation 0 0 0
:bonedata
   begin
      id 1
      name RightUpLeg_dum
      direction -1.000000 0.000000 0.000000
      length 3.693983
      axis 0.0 0.0 0.0 xyz
   end
   begin
      id 2
      name LeftUpLeg_dum
      direction 1.000000 0.000000 0.000000
      length 3.693983
      axis 0.0 0.0 0.0 xyz
   end
   begin
      id 3
      name Spine_dum
      direction 0.000000 1.000000 0.000000
      length 2.392956
      axis 0.0 0.0 0.0 xyz
   end
   begin
      id 4
      name RightUpLeg
      direction 0.000000 -1.000000 0.000000
      length 15.795667
      axis 0.0 0.0 0.0 xyz
      dof rx ry rz
   end
   begin
      id 5
      name RightLeg
      direction 0.000000 -1.000000 0.000000
      length 14.766989
      axis 0.0 0.0 0.0 xyz
      dof rx ry rz
   end
   begin
      id 6
      name RightFoot
      direction 0.000000 -0.258819 0.965926
      length 4.962790
      axis 15.0 0.0 0.0 xyz
      dof rx ry rz
   end
   begin
      id 7
      name RightToeBase
      direction 0.000000 0.000000 1.000000
      length 2.952750
      axis 0.0 0.0 0.0 xyz
      dof rx ry rz
   end
   begin
      id 8
      name LeftUpLeg
      direction 0.000000 -1.000000 0.000000
      length 15.795667
      axis 0.0 0.0 0.0 xyz
      dof rx ry rz
   end
   begin
      id 9
      name LeftLeg
      direction 0.000000 -1.000000 0.000000
      length 14.766989
      axis 0.0 0.0 0.0 xyz
      dof rx ry rz
   end
   begin
      id 10
      name LeftFoot
      direction 0.000000 -0.258819 0.965926
      length 4.962790
      axis 15.0 0.0 0.0 xyz
      dof rx ry rz
   end
   begin
      id 11
      name LeftToeBase
      direction 0.000000 0.000000 1.000000
      length 2.952750
      axis 0.0 0.0 0.0 xyz
      dof rx ry rz
   end
   begin
      id 12
      name Spine
      direction 0.000000 1.000000 0.000000
      length 0.000000
      axis 0.0 0.0 0.0 xyz
      dof rx ry rz
   end
   begin
      id 13
      name Spine_dum1
      direction 0.000000 1.000000 0.000000
      length 13.207411
      axis 0.0 0.0 0.0 xyz
   end
   begin
      id 14
      name Spine_dum2
      direction 0.000000 1.000000 0.000000
      length 13.207411
      axis 0.0 0.0 0.0 xyz
   end
   begin
      id 15
      name Spine_dum3
      direction 0.000000 1.000000 0.000000
      length 19.250100
      axis 0.0 0.0 0.0 xyz
   end
   begin
      id 16
      name RightShoulder
      direction -1.000000 0.000000 0.000000
      length 8.140465
      axis 0.0 0.0 90.0 xyz
      dof rx ry rz
   end
   begin
      id 17
      name RightArm
      direction -1.000000 0.000000 0.000000
      length 10.649840
      axis 0.0 0.0 90.0 xyz
      dof rx ry rz
   end
   begin
      id 18
      name RightForeArm
      direction -1.000000 0.000000 0.000000
      length 8.304624
      axis 0.0 0.0 90.0 xyz
      dof ry rz rx
   end
   begin
      id 19
      name RightHand
      direction -1.000000 0.000000 0.000000
      length 0.000000
      axis 0.0 0.0 90.0 xyz
      dof rx ry rz
   end
   begin
      id 20
      name RightHand_dum1
      direction -1.000000 0.000000 0.000000
      length 3.937000
      axis 0.0 0.0 90.0 xyz
   end
   begin
      id 21
      name RightHand_dum2
      direction 0.000000 0.000000 0.000000
      length 0.000000
      axis 0.0 0.0 90.0 xyz
   end
   begin
      id 22
      name RightHandThumb1
      direction 0.000000 0.000000 1.000000
      length 3.937000
      axis 0.0 0.0 90.0 xyz
      dof rx rz ry
   end
   begin
      id 23
      name LeftShoulder
      direction 1.000000 0.000000 0.000000
      length 8.140465
      axis 0.0 0.0 -90.0 xyz
      dof rx ry rz
   end
   begin
      id 24
      name LeftArm
      direction 1.000000 0.000000 0.000000
      length 10.649840
      axis 0.0 0.0 -90.0 xyz
      dof rx ry rz
   end
   begin
      id 25
      name LeftForeArm
      direction 1.000000 0.000000 0.000000
      length 8.304624
      axis 0.0 0.0 -90.0 xyz
      dof ry rz rx
   end
   begin
      id 26
      name LeftHand
      direction 1.000000 0.000000 0.000000
      length 0.000000
      axis 0.0 0.0 -90.0 xyz
      dof rx ry rz
   end
   begin
      id 27
      name LeftHand_dum1
      direction 1.000000 0.000000 0.000000
      length 3.937000
      axis 0.0 0.0 -90.0 xyz
   end
   begin
      id 28
      name LeftHand_dum2
      direction 0.000000 0.000000 0.000000
      length 0.000000
      axis 0.0 0.0 -90.0 xyz
   end
   begin
      id 29
      name LeftHandThumb1
      direction 0.000000 0.000000 1.000000
      length 3.937000
      axis 0.0 0.0 -90.0 xyz
      dof rx rz ry
   end
   begin
      id 30
      name Head
      direction 0.000000 1.000000 0.000000
      length 4.527550
      axis 0.0 0.0 0.0 xyz
      dof rx ry rz
   end
:hierarchy
   begin
      root RightUpLeg_dum LeftUpLeg_dum Spine_dum
      RightUpLeg_dum RightUpLeg
      LeftUpLeg_dum LeftUpLeg
      Spine_dum Spine
      RightUpLeg RightLeg
      RightLeg RightFoot
      RightFoot RightToeBase
      LeftUpLeg LeftLeg
      LeftLeg LeftFoot
      LeftFoot LeftToeBase
      Spine Spine_dum1 Spine_dum2 Spine_dum3
      Spine_dum1 RightShoulder
      Spine_dum2 LeftShoulder
      Spine_dum3 Head
      RightShoulder RightArm
      RightArm RightForeArm
      RightForeArm RightHand
      RightHand RightHand_dum1 RightHand_dum2
      RightHand_dum2 RightHandThumb1
      LeftShoulder LeftArm
      LeftArm LeftForeArm
      LeftForeArm LeftHand
      LeftHand LeftHand_dum1 LeftHand_dum2
      LeftHand_dum2 LeftHandThumb1
   end

# File created by Blade
# Date/Time:  Wed Jan 21 19:03:07 2015
# Frame Rate: 120.000 fps
#------------------------------------------------------
:FULLY-SPECIFIED
:DEGREES
930
root -4.764570 29.500218 -6.710856 117.920527 -32.249224 3.828877
RightUpLeg -130.072001 -16.042612 18.753990
RightLeg -12.442161 -0.000000 0.000000
RightFoot 10.579593 4.227444 38.037964
RightToeBase 24.885799 -0.000000 -0.000000
LeftUpLeg -101.307026 8.276885 -29.292565
LeftLeg -6.586324 -0.000000 0.000000
LeftFoot -6.940282 6.402315 -21.855893
LeftToeBase 5.378035 -0.000000 -0.000000
Spine 30.808104 -27.731586 22.518183
RightShoulder 12.950832 6.132194 -46.153336
RightArm 73.303894 18.973525 91.147022
RightForeArm 73.897225 -0.000000 111.473324
RightHand 12.266359 -0.000000 -8.852611
RightHandThumb1 -24.326973 -0.000000 -32.862282
LeftShoulder 21.310058 14.853192 26.709083
LeftArm 107.436880 -17.910122 -92.081881
LeftForeArm -33.008316 -0.000000 108.905823
LeftHand -27.206494 -0.000000 22.742482
LeftHandThumb1 -26.253704 0.000000 33.147579
Head 27.065056 6.466389 -40.217457
931
root -4.762487 29.499588 -6.715156 117.888967 -32.243817 3.853238
RightUpLeg -130.061452 -16.023454 18.799040
RightLeg -12.478362 -0.000000 0.000000
RightFoot 10.626103 4.244096 38.018919
RightToeBase 24.919810 -0.000000 -0.000000
LeftUpLeg -101.289328 8.281181 -29.251651
LeftLeg -6.581793 -0.000000 0.000000
LeftFoot -6.941581 6.407562 -21.890382
LeftToeBase 5.392873 -0.000000 -0.000000
Spine 30.844968 -27.756124 22.543168
RightShoulder 12.927235 6.252961 -46.184679
RightArm 73.212894 18.948735 91.172679
RightForeArm 73.898983 -0.000000 111.524255
RightHand 12.240095 -0.000000 -8.826753
RightHandThumb1 -24.326973 -0.000000 -32.862282
LeftShoulder 21.258644 14.805939 26.698832
LeftArm 107.375804 -17.870195 -92.103881
LeftForeArm -33.003498 0.000000 108.967764
LeftHand -27.187909 -0.000000 22.674959
LeftHandThumb1 -26.253704 0.000000 33.147579
Head 26.922184 6.436560 -40.293322
932
root -4.758215 29.500133 -6.720767 117.845980 -32.236043 3.882386
RightUpLeg -130.053218 -16.001936 18.859920
RightLeg -12.508273 -0.000000 0.000000
RightFoot 10.697160 4.283523 37.955901
RightToeBase 24.766915 -0.000000 -0.000000
LeftUpLeg -101.268639 8.286302 -29.215618
LeftLeg -6.576997 -0.000000 0.000000
LeftFoot -6.909213 6.359545 -21.844569
LeftToeBase 5.337697 -0.000000 -0.000000
Spine 30.868100 -27.786785 22.581679
RightShoulder 12.923108 6.353959 -46.240959
RightArm 73.140397 18.930547 91.220868
RightForeArm 73.865383 0.000000 111.572111
RightHand 12.208222 0.000000 -8.884002
RightHandThumb1 -24.326973 -0.000000 -32.862282
LeftShoulder 21.209746 14.782024 26.671430
LeftArm 107.362775 -17.858506 -92.122533
LeftForeArm -33.080726 -0.000000 108.967014
LeftHand -27.051890 -0.000000 22.567714
LeftHandThumb1 -26.253704 0.000000 33.147579
Head 26.737363 6.371205 -40.302590
933
root -4.755084 29.499708 -6.726841 117.809600 -32.231343 3.900572
RightUpLeg -130.040105 -15.981978 18.898438
RightLeg -12.537571 -0.000000 0.000000
RightFoot 10.723565 4.287777 38.004569
RightToeBase 24.940268 -0.000000 -0.000000
LeftUpLeg -101.257952 8.295314 -29.198300
LeftLeg -6.564063 -0.000000 0.000000
LeftFoot -6.885724 6.292920 -21.833281
LeftToeBase 5.397068 -0.000000 -0.000000
Spine 30.895979 -27.799924 22.610364
RightShoulder 12.924108 6.419854 -46.282693
RightArm 73.100434 18.922903 91.273813
RightForeArm 73.796040 -0.000000 111.623438
RightHand 12.209995 0.000000 -8.890852
RightHandThumb1 -24.326973 -0.000000 -32.862282
LeftShoulder 21.174656 14.741021 26.654596
LeftArm 107.318857 -17.848153 -92.138199
LeftForeArm -33.181016 -0.000000 108.968343
LeftHand -26.966957 0.000000 22.487794
LeftHandThumb1 -26.253704 0.000000 33.147579
Head 26.620853 6.349896 -40.361475
934
root -4.752769 29.498185 -6.734632 117.764579 -32.209649 3.923388
RightUpLeg -129.989709 -15.962773 18.935807
RightLeg -12.616426 -0.000000 0.000000
RightFoot 10.745877 4.259817 37.892008
RightToeBase 24.825586 -0.000000 -0.000000
LeftUpLeg -101.247469 8.312398 -29.157372
LeftLeg -6.546785 -0.000000 0.000000
LeftFoot -6.898693 6.267965 -21.817127
LeftToeBase 5.380294 -0.000000 -0.000000
Spine 30.928422 -27.813332 22.633593
RightShoulder 12.971387 6.508669 -46.308002
RightArm 72.997633 18.972594 91.332813
RightForeArm 73.729340 -0.000000 111.730877
RightHand 12.210156 -0.000000 -9.037917
RightHandThumb1 -24.326973 -0.000000 -32.862282
LeftShoulder 21.148280 14.747806 26.638726
LeftArm 107.330130 -17.849334 -92.122515
LeftForeArm -33.273895 -0.000000 108.945833
LeftHand -26.907276 -0.000000 22.488417
LeftHandThumb1 -26.253704 0.000000 33.147579
Head 26.569807 6.370116 -40.372152
935
root -4.748019 29.497754 -6.741658 117.735872 -32.218333 3.929024
RightUpLeg -130.014914 -15.884655 19.016438
RightLeg -12.602336 -0.000000 0.000000
RightFoot 10.851514 4.381825 37.850243
RightToeBase 24.728628 -0.000000 -0.000000
LeftUpLeg -101.229370 8.324764 -29.138257
LeftLeg -6.546563 -0.000000 0.000000
LeftFoot -6.907817 6.265499 -21.794825
LeftToeBase 5.415014 -0.000000 -0.000000
Spine 30.953544 -27.810907 22.642129
RightShoulder 12.971619 6.587761 -46.331898
RightArm 72.930532 18.990530 91.362559
RightForeArm 73.650744 0.000000 111.790365
RightHand 12.198549 -0.000000 -9.097354
RightHandThumb1 -24.326973 -0.000000 -32.862282
LeftShoulder 21.095007 14.721259 26.607226
LeftArm 107.309029 -17.819150 -92.078508
LeftForeArm -33.352149 -0.000000 108.900832
LeftHand -26.829540 0.000000 22.468997
LeftHandThumb1 -26.253704 0.000000 33.147579
Head 26.504965 6.387719 -40.354203
936
root -4.743339 29.496157 -6.749641 117.688855 -32.215870 3.948374
RightUpLeg -130.024187 -15.850803 19.078442
RightLeg -12.586714 -0.000000 0.000000
RightFoot 10.872639 4.471258 37.821543
RightToeBase 24.909432 -0.000000 -0.000000
LeftUpLeg -101.208798 8.333745 -29.107313
LeftLeg -6.534183 -0.000000 0.000000
LeftFoot -6.934114 6.283157 -21.751147
LeftToeBase 5.438937 -0.000000 -0.000000
Spine 30.987870 -27.815823 22.668005
RightShoulder 12.976250 6.658491 -46.366124
RightArm 72.867800 19.032160 91.384239
RightForeArm 73.599277 -0.000000 111.859267
RightHand 12.194648 -0.000000 -9.123551
RightHandThumb1 -24.326973 -0.000000 -32.862282
LeftShoulder 21.043731 14.734869 26.585278
LeftArm 107.349754 -17.770985 -92.103100
LeftForeArm -33.632621 -0.000000 108.847811
LeftHand -26.741796 -0.000000 22.272005
LeftHandThumb1 -26.253704 0.000000 33.147579
Head 26.426824 6.383920 -40.377843
937
root -4.737515 29.495097 -6.757455 117.629961 -32.210186 3.977942
RightUpLeg -130.018235 -15.834574 19.140200
RightLeg -12.599556 -0.000000 0.000000
RightFoot 10.959997 4.531898 37.883659
RightToeBase 24.985874 -0.000000 -0.000000
LeftUpLeg -101.184142 8.333330 -29.085235
LeftLeg -6.520814 -0.000000 0.000000
LeftFoot -6.934318 6.305579 -21.726128
LeftToeBase 5.418613 -0.000000 -0.000000
Spine 31.022198 -27.827736 22.702983
RightShoulder 12.953086 6.700966 -46.416787
RightArm 72.819790 19.051864 91.415065
RightForeArm 73.521526 0.000000 111.916168
RightHand 12.157432 -0.000000 -9.166941
RightHandThumb1 -24.326973 -0.000000 -32.862282
LeftShoulder 21.000137 14.732885 26.569145
LeftArm 107.374007 -17.752681 -92.083047
LeftForeArm -33.705372 -0.000000 108.810562
LeftHand -26.688206 -0.000000 22.239441
LeftHandThumb1 -26.253704 0.000000 33.147579
Head 26.346771 6.374818 -40.400948
